<?xml version="1.0" standalone="no"?>
<!DOCTYPE svg PUBLIC "-//W3C//DTD SVG 20010904//EN"
 "http://www.w3.org/TR/2001/REC-SVG-20010904/DTD/svg10.dtd">
<svg version="1.0" xmlns="http://www.w3.org/2000/svg"
 width="640.000000pt" height="1280.000000pt" viewBox="0 0 640.000000 1280.000000"
 preserveAspectRatio="xMidYMid meet">

<g transform="translate(0.000000,1280.000000) scale(0.100000,-0.100000)"
fill="#ff0000" stroke="none">
<path d="M4105 12786 c-368 -87 -737 -453 -1062 -1056 -130 -242 -292 -633
-333 -803 -64 -265 -41 -711 61 -1172 33 -149 115 -462 155 -590 21 -66 38
-131 38 -145 1 -21 -59 -81 -319 -325 -576 -540 -735 -697 -941 -930 -401
-454 -670 -938 -814 -1460 -106 -388 -150 -824 -112 -1100 65 -460 225 -853
493 -1212 94 -125 346 -377 470 -470 342 -256 717 -415 1142 -485 116 -19 170
-22 457 -22 192 0 360 5 409 12 47 7 87 10 89 7 6 -6 12 -77 62 -765 24 -337
36 -490 51 -687 32 -404 -81 -835 -285 -1088 -108 -134 -232 -221 -389 -273
-99 -33 -397 -89 -528 -99 -150 -11 -221 28 -199 108 9 29 24 42 97 84 261
151 426 335 478 535 19 72 19 249 0 340 -80 379 -398 650 -762 650 -201 0
-390 -85 -540 -244 -152 -159 -228 -354 -228 -581 0 -97 5 -134 24 -195 96
-309 386 -616 701 -740 98 -39 368 -80 524 -80 97 0 300 26 401 51 44 11 130
44 190 73 339 166 575 470 678 871 31 124 43 196 57 354 10 110 9 142 -9 280
-12 86 -39 296 -61 466 -59 459 -79 614 -101 775 -26 199 -29 185 34 205 166
54 571 247 711 339 178 117 324 270 471 491 109 166 168 274 234 429 136 322
181 522 181 811 0 212 -26 373 -91 570 -225 681 -826 1151 -1553 1215 -140 12
-340 1 -470 -26 -38 -8 -70 -13 -71 -12 -1 2 -16 104 -33 228 -17 124 -54 389
-82 590 -27 201 -53 379 -55 397 -5 29 6 44 133 190 699 800 1169 1539 1376
2167 48 143 71 252 106 486 78 529 63 927 -46 1243 -86 247 -218 420 -422 552
-71 46 -75 47 -165 51 -58 2 -114 -1 -152 -10z m217 -582 c79 -55 144 -179
179 -345 21 -92 23 -132 23 -354 0 -302 -28 -517 -80 -620 -9 -16 -29 -68 -46
-115 -44 -126 -129 -289 -223 -430 -168 -253 -337 -442 -762 -856 l-301 -295
-35 148 c-61 254 -72 344 -72 578 0 351 46 524 260 985 164 353 330 631 511
855 117 145 463 475 498 475 6 0 27 -12 48 -26z m-1143 -4371 c12 -93 31 -229
41 -303 74 -526 90 -643 90 -660 0 -14 -16 -24 -67 -40 -224 -74 -494 -249
-680 -443 -292 -304 -458 -679 -492 -1108 -38 -469 162 -860 583 -1142 185
-124 402 -191 458 -140 34 30 22 47 -64 88 -331 159 -461 345 -488 698 -18
239 19 449 115 643 141 288 387 506 684 603 35 12 65 21 66 21 1 0 5 -24 9
-52 7 -58 60 -439 136 -988 27 -195 68 -488 90 -650 23 -162 54 -392 71 -510
49 -352 67 -482 74 -536 l6 -51 -48 -13 c-166 -42 -235 -49 -378 -39 -320 21
-544 64 -792 150 -595 209 -980 641 -1139 1279 -83 336 -108 782 -55 995 100
405 380 844 959 1500 172 194 786 865 792 865 3 0 16 -75 29 -167z m811 -1773
c352 -86 631 -305 789 -618 92 -182 123 -328 122 -577 -1 -393 -58 -687 -179
-930 -96 -195 -278 -382 -492 -506 -65 -37 -280 -132 -286 -126 -2 2 -52 353
-124 880 -22 160 -45 321 -50 357 -5 36 -28 198 -50 360 -22 162 -45 324 -50
360 -5 36 -28 198 -50 360 -22 162 -45 322 -50 356 -16 96 -15 102 23 107 76
12 313 -2 397 -23z"/>
</g>
</svg>
